<svg xmlns="http://www.w3.org/2000/svg" width="900" height="360" font-family="system-ui,sans-serif" font-size="12">
<rect width="900" height="360" fill="#fbfbf9"/>
<line x1="78.0" y1="304.0" x2="876.0" y2="304.0" stroke="#dcdcd4"/>
<text x="71.0" y="308.0" text-anchor="end" fill="#6a6a62" font-size="10">0</text>
<line x1="78.0" y1="257.1" x2="876.0" y2="257.1" stroke="#dcdcd4"/>
<text x="71.0" y="261.1" text-anchor="end" fill="#6a6a62" font-size="10">200</text>
<line x1="78.0" y1="210.2" x2="876.0" y2="210.2" stroke="#dcdcd4"/>
<text x="71.0" y="214.2" text-anchor="end" fill="#6a6a62" font-size="10">400</text>
<line x1="78.0" y1="163.3" x2="876.0" y2="163.3" stroke="#dcdcd4"/>
<text x="71.0" y="167.3" text-anchor="end" fill="#6a6a62" font-size="10">600</text>
<line x1="78.0" y1="116.4" x2="876.0" y2="116.4" stroke="#dcdcd4"/>
<text x="71.0" y="120.4" text-anchor="end" fill="#6a6a62" font-size="10">800</text>
<line x1="78.0" y1="69.5" x2="876.0" y2="69.5" stroke="#dcdcd4"/>
<text x="71.0" y="73.5" text-anchor="end" fill="#6a6a62" font-size="10">1000</text>
<line x1="112.0" y1="46.0" x2="112.0" y2="304.0" stroke="#eeeee6"/>
<text x="112.0" y="320.0" text-anchor="middle" fill="#6a6a62" font-size="10">0.5</text>
<line x1="281.7" y1="46.0" x2="281.7" y2="304.0" stroke="#eeeee6"/>
<text x="281.7" y="320.0" text-anchor="middle" fill="#6a6a62" font-size="10">1.0</text>
<line x1="451.5" y1="46.0" x2="451.5" y2="304.0" stroke="#eeeee6"/>
<text x="451.5" y="320.0" text-anchor="middle" fill="#6a6a62" font-size="10">1.5</text>
<line x1="621.3" y1="46.0" x2="621.3" y2="304.0" stroke="#eeeee6"/>
<text x="621.3" y="320.0" text-anchor="middle" fill="#6a6a62" font-size="10">2.0</text>
<line x1="791.1" y1="46.0" x2="791.1" y2="304.0" stroke="#eeeee6"/>
<text x="791.1" y="320.0" text-anchor="middle" fill="#6a6a62" font-size="10">2.5</text>
<rect x="78.0" y="304.0" width="798.0" height="5" fill="#c0392b"/>
<text x="78.0" y="20.0" fill="#33332e" font-size="13" font-weight="600">Operation run 1 - measured 24 mm, no contact</text>
<text x="78.0" y="35.0" fill="#6a6a62" font-size="11">control channel is odometry; ranger A is a monitor and gates nothing.</text>
<text transform="translate(15,180.0) rotate(-90)" text-anchor="middle" fill="#6a6a62" font-size="10">distance to wall (mm)</text>
<text x="489.0" y="354.0" text-anchor="middle" fill="#6a6a62" font-size="10">hub clock (s)</text>
<path d="M84.8 69.5 L115.0 70.7 L145.2 76.0 L175.1 84.3 L205.0 94.7 L234.9 104.4 L264.8 114.5 L294.6 124.7 L309.6 129.7 L324.5 134.8 L339.8 139.8 L369.7 149.8 L399.6 159.8 L429.5 169.6 L444.4 174.6 L459.3 179.7 L489.2 189.4 L519.1 199.7 L549.0 209.5 L579.2 219.2 L609.1 229.2 L639.0 239.5 L668.9 249.3 L698.7 259.4 L713.7 264.5 L743.6 274.4 L773.4 284.4 L788.4 289.0 L822.7 292.4 L856.6 292.3" fill="none" stroke="#1f7a3d" stroke-width="2.4"/>
<path d="M84.8 64.1 L115.0 65.5 L145.2 68.5 L175.1 76.3 L205.0 83.8 L234.9 94.8 L264.8 103.9 L294.6 43.7 L309.6 93.8 L324.5 -165.1 L339.8 109.8 L369.7 140.1 L399.6 151.3 L429.5 162.6 L444.4 164.0 L459.3 164.0 L489.2 181.3 L519.1 194.0 L549.0 204.1 L579.2 213.9 L609.1 223.3 L639.0 232.9 L668.9 236.7 L698.7 236.7 L713.7 258.5 L743.6 264.1 L773.4 277.3 L788.4 281.2 L822.7 292.7 L856.6 292.7" fill="none" stroke="#1f4e79" stroke-width="1.5" stroke-dasharray="4,3"/>
<line x1="90.0" y1="338.0" x2="114.0" y2="338.0" stroke="#1f7a3d" stroke-width="2"/>
<text x="120.0" y="342.0" fill="#1f7a3d" font-size="10">gap from odometry (control)</text>
<line x1="313.0" y1="338.0" x2="337.0" y2="338.0" stroke="#1f4e79" stroke-width="2" stroke-dasharray="4,3"/>
<text x="343.0" y="342.0" fill="#1f4e79" font-size="10">ranger A (monitor)</text>
</svg>