<svg xmlns="http://www.w3.org/2000/svg" width="900" height="360" font-family="system-ui,sans-serif" font-size="12">
<rect width="900" height="360" fill="#fbfbf9"/>
<line x1="78.0" y1="304.0" x2="876.0" y2="304.0" stroke="#dcdcd4"/>
<text x="71.0" y="308.0" text-anchor="end" fill="#6a6a62" font-size="10">0</text>
<line x1="78.0" y1="257.1" x2="876.0" y2="257.1" stroke="#dcdcd4"/>
<text x="71.0" y="261.1" text-anchor="end" fill="#6a6a62" font-size="10">200</text>
<line x1="78.0" y1="210.2" x2="876.0" y2="210.2" stroke="#dcdcd4"/>
<text x="71.0" y="214.2" text-anchor="end" fill="#6a6a62" font-size="10">400</text>
<line x1="78.0" y1="163.3" x2="876.0" y2="163.3" stroke="#dcdcd4"/>
<text x="71.0" y="167.3" text-anchor="end" fill="#6a6a62" font-size="10">600</text>
<line x1="78.0" y1="116.4" x2="876.0" y2="116.4" stroke="#dcdcd4"/>
<text x="71.0" y="120.4" text-anchor="end" fill="#6a6a62" font-size="10">800</text>
<line x1="78.0" y1="69.5" x2="876.0" y2="69.5" stroke="#dcdcd4"/>
<text x="71.0" y="73.5" text-anchor="end" fill="#6a6a62" font-size="10">1000</text>
<line x1="112.0" y1="46.0" x2="112.0" y2="304.0" stroke="#eeeee6"/>
<text x="112.0" y="320.0" text-anchor="middle" fill="#6a6a62" font-size="10">0.5</text>
<line x1="281.7" y1="46.0" x2="281.7" y2="304.0" stroke="#eeeee6"/>
<text x="281.7" y="320.0" text-anchor="middle" fill="#6a6a62" font-size="10">1.0</text>
<line x1="451.5" y1="46.0" x2="451.5" y2="304.0" stroke="#eeeee6"/>
<text x="451.5" y="320.0" text-anchor="middle" fill="#6a6a62" font-size="10">1.5</text>
<line x1="621.3" y1="46.0" x2="621.3" y2="304.0" stroke="#eeeee6"/>
<text x="621.3" y="320.0" text-anchor="middle" fill="#6a6a62" font-size="10">2.0</text>
<line x1="791.1" y1="46.0" x2="791.1" y2="304.0" stroke="#eeeee6"/>
<text x="791.1" y="320.0" text-anchor="middle" fill="#6a6a62" font-size="10">2.5</text>
<rect x="78.0" y="304.0" width="798.0" height="5" fill="#c0392b"/>
<text x="78.0" y="20.0" fill="#33332e" font-size="13" font-weight="600">Operation run 4 - measured 23 mm, no contact</text>
<text x="78.0" y="35.0" fill="#6a6a62" font-size="11">control channel is odometry; ranger A is a monitor and gates nothing.</text>
<text transform="translate(15,180.0) rotate(-90)" text-anchor="middle" fill="#6a6a62" font-size="10">distance to wall (mm)</text>
<text x="489.0" y="354.0" text-anchor="middle" fill="#6a6a62" font-size="10">hub clock (s)</text>
<path d="M84.8 69.5 L115.0 70.5 L144.9 76.1 L174.8 84.6 L204.7 95.0 L234.5 104.8 L264.4 114.9 L294.3 124.5 L309.3 129.7 L324.2 134.9 L354.1 144.7 L384.0 154.6 L413.8 164.3 L428.8 169.4 L458.7 179.8 L488.5 189.6 L518.4 199.7 L548.3 209.5 L578.2 219.4 L608.1 229.3 L638.0 239.1 L667.8 248.5 L697.7 258.8 L727.6 269.0 L757.5 279.0 L787.4 288.8 L822.0 292.4" fill="none" stroke="#1f7a3d" stroke-width="2.4"/>
<path d="M84.8 111.0 L115.0 111.9 L144.9 115.9 L174.8 123.4 L204.7 132.5 L234.5 143.6 L264.4 153.0 L294.3 160.2 L309.3 164.9 L324.2 120.8 L354.1 120.8 L384.0 120.8 L413.8 120.8 L428.8 204.3 L458.7 215.8 L488.5 227.3 L518.4 239.5 L548.3 249.8 L578.2 259.0 L608.1 268.1 L638.0 275.2 L667.8 278.9 L697.7 252.4 L727.6 262.5 L757.5 272.3 L787.4 283.1 L822.0 293.0" fill="none" stroke="#1f4e79" stroke-width="1.5" stroke-dasharray="4,3"/>
<line x1="90.0" y1="338.0" x2="114.0" y2="338.0" stroke="#1f7a3d" stroke-width="2"/>
<text x="120.0" y="342.0" fill="#1f7a3d" font-size="10">gap from odometry (control)</text>
<line x1="313.0" y1="338.0" x2="337.0" y2="338.0" stroke="#1f4e79" stroke-width="2" stroke-dasharray="4,3"/>
<text x="343.0" y="342.0" fill="#1f4e79" font-size="10">ranger A (monitor)</text>
</svg>